<?xml version="1.0" encoding="utf-8"?>
<!-- Generator: Adobe Illustrator 19.2.1, SVG Export Plug-In . SVG Version: 6.00 Build 0)  -->
<svg version="1.1" xmlns="http://www.w3.org/2000/svg" xmlns:xlink="http://www.w3.org/1999/xlink" x="0px" y="0px"
	 viewBox="0 0 60 60" style="enable-background:new 0 0 60 60;" xml:space="preserve">
<style type="text/css">
	.st0{fill:#fff;}
<!--	.st1{fill:#7c9;stroke:#7c9;stroke-width:1.0023;stroke-miterlimit:10;}-->
</style>
    
<g id="frame">
	<g>
		<path class="st0" d="M12,59.5C5.7,59.5,0.5,54.3,0.5,48V12C0.5,5.7,5.7,0.5,12,0.5h36c6.3,0,11.5,5.2,11.5,11.5v36
			c0,6.3-5.2,11.5-11.5,11.5H12z"/>
		<path class="st0" d="M48,1c6.1,0,11,4.9,11,11v36c0,6.1-4.9,11-11,11H12C5.9,59,1,54.1,1,48V12C1,5.9,5.9,1,12,1H48 M48,0H12
			C5.4,0,0,5.4,0,12v36c0,6.6,5.4,12,12,12h36c6.6,0,12-5.4,12-12V12C60,5.4,54.6,0,48,0L48,0z"/>
	</g>
<!--
	<g id="Layer_2">
	</g>
-->
</g>
    
<!--
<g id="minus">
	<path class="st1" d="M48.2,34.9H11.8c-2.7,0-4.9-2.2-4.9-4.9v0c0-2.7,2.2-4.9,4.9-4.9h36.4c2.7,0,4.9,2.2,4.9,4.9v0
		C53.1,32.7,50.9,34.9,48.2,34.9z"/>
</g>
    
<g id="plus">
	<path class="st1" d="M34.9,11.8v36.4c0,2.7-2.2,4.9-4.9,4.9h0c-2.7,0-4.9-2.2-4.9-4.9V11.8c0-2.7,2.2-4.9,4.9-4.9h0
		C32.7,6.9,34.9,9.1,34.9,11.8z"/>
</g>
-->
    
</svg>
